STARTFONT 2.3
FONT -FontForge-Tangerine-Book-R-Normal--11-110-72-72-P-40-ISO10646-1
SIZE 11 72 72  2
FONTBOUNDINGBOX 19 13 -4 -4
COMMENT "Generated by fontforge, http://fontforge.sourceforge.net"
COMMENT "Copyright (c) 2010 by Toshi Omagari. All rights reserved."
STARTPROPERTIES 40
FOUNDRY "FontForge"
FAMILY_NAME "Tangerine"
WEIGHT_NAME "Book"
SLANT "R"
SETWIDTH_NAME "Normal"
ADD_STYLE_NAME ""
PIXEL_SIZE 11
POINT_SIZE 110
RESOLUTION_X 72
RESOLUTION_Y 72
SPACING "P"
AVERAGE_WIDTH 40
CHARSET_REGISTRY "ISO10646"
CHARSET_ENCODING "1"
FONTNAME_REGISTRY ""
CHARSET_COLLECTIONS "ISO10646-1"
BITS_PER_PIXEL 2
FONT_NAME "Tangerine-Regular"
FACE_NAME "Tangerine Regular"
COPYRIGHT "Copyright (c) 2010 by Toshi Omagari. All rights reserved."
FONT_VERSION "1.3"
FONT_ASCENT 8
FONT_DESCENT 3
UNDERLINE_POSITION -1
UNDERLINE_THICKNESS 1
X_HEIGHT 2
CAP_HEIGHT 6
RAW_ASCENT 750
RAW_DESCENT 250
NORM_SPACE 2
RELATIVE_WEIGHT 40
RELATIVE_SETWIDTH 50
SUPERSCRIPT_X 0
SUPERSCRIPT_Y 5
SUPERSCRIPT_SIZE 7
SUBSCRIPT_X 0
SUBSCRIPT_Y 1
SUBSCRIPT_SIZE 7
AVG_LOWERCASE_WIDTH 26
AVG_UPPERCASE_WIDTH 78
ENDPROPERTIES
CHARS 233
STARTCHAR space
ENCODING 32
SWIDTH 150 0
DWIDTH 2 0
BBX 1 1 0 0
BITMAP
00
ENDCHAR
STARTCHAR exclam
ENCODING 33
SWIDTH 189 0
DWIDTH 2 0
BBX 3 6 0 0
BITMAP
04
04
00
10
00
40
ENDCHAR
STARTCHAR quotedbl
ENCODING 34
SWIDTH 214 0
DWIDTH 2 0
BBX 2 2 1 3
BITMAP
50
50
ENDCHAR
STARTCHAR numbersign
ENCODING 35
SWIDTH 289 0
DWIDTH 3 0
BBX 4 3 0 0
BITMAP
3D
74
40
ENDCHAR
STARTCHAR dollar
ENCODING 36
SWIDTH 269 0
DWIDTH 3 0
BBX 3 4 0 -1
BITMAP
14
20
54
10
ENDCHAR
STARTCHAR percent
ENCODING 37
SWIDTH 388 0
DWIDTH 4 0
BBX 4 5 0 -1
BITMAP
01
14
A5
15
40
ENDCHAR
STARTCHAR ampersand
ENCODING 38
SWIDTH 507 0
DWIDTH 6 0
BBX 6 6 0 0
BITMAP
0C00
1400
1000
6450
4900
5640
ENDCHAR
STARTCHAR quotesingle
ENCODING 39
SWIDTH 120 0
DWIDTH 1 0
BBX 1 1 1 3
BITMAP
40
ENDCHAR
STARTCHAR parenleft
ENCODING 40
SWIDTH 250 0
DWIDTH 3 0
BBX 2 7 1 -1
BITMAP
10
40
40
40
40
40
40
ENDCHAR
STARTCHAR parenright
ENCODING 41
SWIDTH 276 0
DWIDTH 3 0
BBX 2 7 1 0
BITMAP
10
10
10
10
10
10
40
ENDCHAR
STARTCHAR asterisk
ENCODING 42
SWIDTH 188 0
DWIDTH 2 0
BBX 2 2 0 3
BITMAP
10
50
ENDCHAR
STARTCHAR plus
ENCODING 43
SWIDTH 301 0
DWIDTH 3 0
BBX 3 3 0 0
BITMAP
10
7C
10
ENDCHAR
STARTCHAR comma
ENCODING 44
SWIDTH 112 0
DWIDTH 1 0
BBX 1 1 0 0
BITMAP
40
ENDCHAR
STARTCHAR hyphen
ENCODING 45
SWIDTH 245 0
DWIDTH 3 0
BBX 1 1 2 2
BITMAP
00
ENDCHAR
STARTCHAR period
ENCODING 46
SWIDTH 112 0
DWIDTH 1 0
BBX 1 1 0 0
BITMAP
40
ENDCHAR
STARTCHAR slash
ENCODING 47
SWIDTH 210 0
DWIDTH 2 0
BBX 4 7 0 0
BITMAP
01
01
04
00
10
00
40
ENDCHAR
STARTCHAR zero
ENCODING 48
SWIDTH 349 0
DWIDTH 4 0
BBX 4 3 0 0
BITMAP
01
41
54
ENDCHAR
STARTCHAR one
ENCODING 49
SWIDTH 189 0
DWIDTH 2 0
BBX 3 4 0 0
BITMAP
60
24
20
40
ENDCHAR
STARTCHAR two
ENCODING 50
SWIDTH 277 0
DWIDTH 3 0
BBX 3 3 0 0
BITMAP
18
04
54
ENDCHAR
STARTCHAR three
ENCODING 51
SWIDTH 253 0
DWIDTH 3 0
BBX 4 5 -1 -2
BITMAP
06
01
01
05
78
ENDCHAR
STARTCHAR four
ENCODING 52
SWIDTH 363 0
DWIDTH 4 0
BBX 5 6 0 0
BITMAP
0040
0100
0100
1500
6E00
0400
ENDCHAR
STARTCHAR five
ENCODING 53
SWIDTH 250 0
DWIDTH 3 0
BBX 4 5 -1 -2
BITMAP
05
08
05
04
B4
ENDCHAR
STARTCHAR six
ENCODING 54
SWIDTH 296 0
DWIDTH 3 0
BBX 5 6 0 0
BITMAP
0780
1800
2000
5800
4400
5400
ENDCHAR
STARTCHAR seven
ENCODING 55
SWIDTH 326 0
DWIDTH 4 0
BBX 4 5 0 -2
BITMAP
2E
00
00
10
40
ENDCHAR
STARTCHAR eight
ENCODING 56
SWIDTH 305 0
DWIDTH 3 0
BBX 4 5 0 0
BITMAP
15
15
18
41
54
ENDCHAR
STARTCHAR nine
ENCODING 57
SWIDTH 304 0
DWIDTH 3 0
BBX 5 6 -1 -2
BITMAP
0500
0400
1240
1E00
0500
7400
ENDCHAR
STARTCHAR colon
ENCODING 58
SWIDTH 156 0
DWIDTH 2 0
BBX 2 3 0 0
BITMAP
10
00
40
ENDCHAR
STARTCHAR semicolon
ENCODING 59
SWIDTH 156 0
DWIDTH 2 0
BBX 2 4 0 -1
BITMAP
10
00
40
40
ENDCHAR
STARTCHAR less
ENCODING 60
SWIDTH 301 0
DWIDTH 3 0
BBX 3 3 0 0
BITMAP
14
50
10
ENDCHAR
STARTCHAR equal
ENCODING 61
SWIDTH 301 0
DWIDTH 3 0
BBX 3 3 0 0
BITMAP
7C
00
78
ENDCHAR
STARTCHAR greater
ENCODING 62
SWIDTH 301 0
DWIDTH 3 0
BBX 2 2 1 1
BITMAP
90
10
ENDCHAR
STARTCHAR question
ENCODING 63
SWIDTH 285 0
DWIDTH 3 0
BBX 4 6 0 0
BITMAP
06
01
04
10
00
40
ENDCHAR
STARTCHAR at
ENCODING 64
SWIDTH 492 0
DWIDTH 5 0
BBX 5 5 0 -1
BITMAP
1B40
2540
5540
5B40
1500
ENDCHAR
STARTCHAR A
ENCODING 65
SWIDTH 996 0
DWIDTH 11 0
BBX 11 7 0 0
BITMAP
000554
000014
000050
001510
000BE0
000410
554024
ENDCHAR
STARTCHAR B
ENCODING 66
SWIDTH 638 0
DWIDTH 7 0
BBX 7 7 0 0
BITMAP
0054
0044
0114
0114
0108
5404
1510
ENDCHAR
STARTCHAR C
ENCODING 67
SWIDTH 557 0
DWIDTH 6 0
BBX 7 7 0 0
BITMAP
0054
0000
1000
1000
5000
2010
1550
ENDCHAR
STARTCHAR D
ENCODING 68
SWIDTH 799 0
DWIDTH 9 0
BBX 9 7 0 0
BITMAP
055400
001500
001140
004040
004040
010040
555500
ENDCHAR
STARTCHAR E
ENCODING 69
SWIDTH 494 0
DWIDTH 5 0
BBX 6 7 0 0
BITMAP
0050
0500
0700
1400
5000
5000
1540
ENDCHAR
STARTCHAR F
ENCODING 70
SWIDTH 626 0
DWIDTH 7 0
BBX 9 7 0 0
BITMAP
0057C0
000800
000400
01FD00
001000
401000
550000
ENDCHAR
STARTCHAR G
ENCODING 71
SWIDTH 571 0
DWIDTH 6 0
BBX 9 9 -1 -2
BITMAP
001B40
006040
004000
020000
020000
010800
100400
401000
154000
ENDCHAR
STARTCHAR H
ENCODING 72
SWIDTH 865 0
DWIDTH 10 0
BBX 13 8 0 0
BITMAP
00000140
00540400
00101000
00200000
0BE54000
2445C000
40404000
50014000
ENDCHAR
STARTCHAR I
ENCODING 73
SWIDTH 554 0
DWIDTH 6 0
BBX 8 7 0 0
BITMAP
0005
0004
0044
0014
0050
5180
2E00
ENDCHAR
STARTCHAR J
ENCODING 74
SWIDTH 634 0
DWIDTH 7 0
BBX 9 9 0 -2
BITMAP
000140
000100
001100
000400
001400
001400
402000
818000
7D0000
ENDCHAR
STARTCHAR K
ENCODING 75
SWIDTH 936 0
DWIDTH 10 0
BBX 11 7 0 0
BITMAP
005414
000400
001400
001400
001500
400100
550190
ENDCHAR
STARTCHAR L
ENCODING 76
SWIDTH 657 0
DWIDTH 7 0
BBX 8 7 0 0
BITMAP
001A
0021
0080
0080
1500
BE04
51F4
ENDCHAR
STARTCHAR M
ENCODING 77
SWIDTH 1219 0
DWIDTH 13 0
BBX 14 7 0 0
BITMAP
00155010
00002040
00005040
00004140
40005100
40108100
25404140
ENDCHAR
STARTCHAR N
ENCODING 78
SWIDTH 990 0
DWIDTH 11 0
BBX 14 7 0 0
BITMAP
00540050
00050100
00044100
00044400
40001000
40101000
25401000
ENDCHAR
STARTCHAR O
ENCODING 79
SWIDTH 606 0
DWIDTH 7 0
BBX 7 7 0 0
BITMAP
02F4
0918
1004
1004
5004
2460
1F80
ENDCHAR
STARTCHAR P
ENCODING 80
SWIDTH 783 0
DWIDTH 9 0
BBX 10 7 0 0
BITMAP
001540
000410
000410
001050
001500
404000
150000
ENDCHAR
STARTCHAR Q
ENCODING 81
SWIDTH 563 0
DWIDTH 6 0
BBX 7 9 1 -2
BITMAP
0A80
1060
4020
4010
4000
5140
0500
6E40
02F8
ENDCHAR
STARTCHAR R
ENCODING 82
SWIDTH 854 0
DWIDTH 9 0
BBX 9 7 0 0
BITMAP
001540
000440
001040
001500
001400
404500
550240
ENDCHAR
STARTCHAR S
ENCODING 83
SWIDTH 480 0
DWIDTH 5 0
BBX 6 8 0 0
BITMAP
0040
0010
0200
0240
0080
0040
4040
1500
ENDCHAR
STARTCHAR T
ENCODING 84
SWIDTH 577 0
DWIDTH 6 0
BBX 9 7 0 0
BITMAP
01FE40
010000
000000
001000
001000
400000
550000
ENDCHAR
STARTCHAR U
ENCODING 85
SWIDTH 752 0
DWIDTH 8 0
BBX 7 7 2 0
BITMAP
5404
0004
0020
0060
4090
8650
7860
ENDCHAR
STARTCHAR V
ENCODING 86
SWIDTH 661 0
DWIDTH 7 0
BBX 7 7 2 0
BITMAP
5070
0414
0410
0400
0440
0500
0400
ENDCHAR
STARTCHAR W
ENCODING 87
SWIDTH 822 0
DWIDTH 9 0
BBX 8 7 2 0
BITMAP
6001
0441
0441
0441
0444
1040
1040
ENDCHAR
STARTCHAR X
ENCODING 88
SWIDTH 813 0
DWIDTH 9 0
BBX 10 7 0 0
BITMAP
008150
015000
001000
002000
002000
001840
540740
ENDCHAR
STARTCHAR Y
ENCODING 89
SWIDTH 662 0
DWIDTH 7 0
BBX 10 8 0 -1
BITMAP
008010
004040
004140
104200
405800
40E000
904000
2E4000
ENDCHAR
STARTCHAR Z
ENCODING 90
SWIDTH 625 0
DWIDTH 7 0
BBX 7 7 1 0
BITMAP
07F4
0410
0040
0000
0000
0040
FF40
ENDCHAR
STARTCHAR bracketleft
ENCODING 91
SWIDTH 318 0
DWIDTH 4 0
BBX 3 8 1 -1
BITMAP
14
10
10
10
40
40
40
80
ENDCHAR
STARTCHAR backslash
ENCODING 92
SWIDTH 212 0
DWIDTH 2 0
BBX 2 7 0 0
BITMAP
40
40
40
00
10
10
10
ENDCHAR
STARTCHAR bracketright
ENCODING 93
SWIDTH 339 0
DWIDTH 4 0
BBX 3 8 1 -1
BITMAP
08
04
04
10
10
10
10
50
ENDCHAR
STARTCHAR asciicircum
ENCODING 94
SWIDTH 272 0
DWIDTH 3 0
BBX 2 2 1 2
BITMAP
50
10
ENDCHAR
STARTCHAR underscore
ENCODING 95
SWIDTH 356 0
DWIDTH 4 0
BBX 4 1 0 -1
BITMAP
A5
ENDCHAR
STARTCHAR grave
ENCODING 96
SWIDTH 155 0
DWIDTH 2 0
BBX 2 2 0 3
BITMAP
80
10
ENDCHAR
STARTCHAR a
ENCODING 97
SWIDTH 294 0
DWIDTH 3 0
BBX 3 3 0 0
BITMAP
2C
54
44
ENDCHAR
STARTCHAR b
ENCODING 98
SWIDTH 247 0
DWIDTH 3 0
BBX 6 8 0 0
BITMAP
0050
0000
0000
0000
1000
2400
4400
5000
ENDCHAR
STARTCHAR c
ENCODING 99
SWIDTH 203 0
DWIDTH 2 0
BBX 2 3 0 0
BITMAP
10
40
50
ENDCHAR
STARTCHAR d
ENCODING 100
SWIDTH 285 0
DWIDTH 3 0
BBX 7 8 0 0
BITMAP
0014
0040
0000
0100
0400
1800
4400
5800
ENDCHAR
STARTCHAR e
ENCODING 101
SWIDTH 206 0
DWIDTH 2 0
BBX 2 3 0 0
BITMAP
20
40
50
ENDCHAR
STARTCHAR f
ENCODING 102
SWIDTH 156 0
DWIDTH 2 0
BBX 9 11 -3 -3
BITMAP
000140
000000
001000
004000
004000
02E000
004000
010000
010000
040000
400000
ENDCHAR
STARTCHAR g
ENCODING 103
SWIDTH 210 0
DWIDTH 2 0
BBX 5 6 -2 -3
BITMAP
0240
0500
0500
1100
6100
2E00
ENDCHAR
STARTCHAR h
ENCODING 104
SWIDTH 292 0
DWIDTH 3 0
BBX 6 8 0 0
BITMAP
0050
0000
0000
0000
1000
1800
5400
4400
ENDCHAR
STARTCHAR i
ENCODING 105
SWIDTH 149 0
DWIDTH 2 0
BBX 2 3 0 0
BITMAP
10
40
40
ENDCHAR
STARTCHAR j
ENCODING 106
SWIDTH 136 0
DWIDTH 2 0
BBX 5 8 -3 -3
BITMAP
0040
0000
0040
0100
0100
0000
0000
4000
ENDCHAR
STARTCHAR k
ENCODING 107
SWIDTH 259 0
DWIDTH 3 0
BBX 6 8 0 0
BITMAP
0050
0000
0000
0000
1000
1400
5000
5400
ENDCHAR
STARTCHAR l
ENCODING 108
SWIDTH 134 0
DWIDTH 1 0
BBX 5 8 0 0
BITMAP
0140
0100
0400
1000
1000
1000
4000
4000
ENDCHAR
STARTCHAR m
ENCODING 109
SWIDTH 413 0
DWIDTH 5 0
BBX 5 3 0 0
BITMAP
2940
5900
4500
ENDCHAR
STARTCHAR n
ENCODING 110
SWIDTH 291 0
DWIDTH 3 0
BBX 3 3 0 0
BITMAP
58
54
44
ENDCHAR
STARTCHAR o
ENCODING 111
SWIDTH 225 0
DWIDTH 2 0
BBX 3 3 0 0
BITMAP
34
44
40
ENDCHAR
STARTCHAR p
ENCODING 112
SWIDTH 261 0
DWIDTH 3 0
BBX 4 6 -1 -3
BITMAP
01
02
28
10
00
40
ENDCHAR
STARTCHAR q
ENCODING 113
SWIDTH 269 0
DWIDTH 3 0
BBX 3 6 0 -3
BITMAP
18
44
50
10
10
10
ENDCHAR
STARTCHAR r
ENCODING 114
SWIDTH 195 0
DWIDTH 2 0
BBX 3 3 0 0
BITMAP
68
50
40
ENDCHAR
STARTCHAR s
ENCODING 115
SWIDTH 188 0
DWIDTH 2 0
BBX 2 3 0 0
BITMAP
10
10
50
ENDCHAR
STARTCHAR t
ENCODING 116
SWIDTH 171 0
DWIDTH 2 0
BBX 3 4 0 0
BITMAP
10
74
40
40
ENDCHAR
STARTCHAR u
ENCODING 117
SWIDTH 299 0
DWIDTH 3 0
BBX 3 3 0 0
BITMAP
14
44
54
ENDCHAR
STARTCHAR v
ENCODING 118
SWIDTH 271 0
DWIDTH 3 0
BBX 3 3 0 0
BITMAP
14
14
60
ENDCHAR
STARTCHAR w
ENCODING 119
SWIDTH 369 0
DWIDTH 4 0
BBX 4 3 0 0
BITMAP
55
25
58
ENDCHAR
STARTCHAR x
ENCODING 120
SWIDTH 263 0
DWIDTH 3 0
BBX 3 3 0 0
BITMAP
1C
20
54
ENDCHAR
STARTCHAR y
ENCODING 121
SWIDTH 280 0
DWIDTH 3 0
BBX 5 6 -2 -3
BITMAP
0140
0480
0540
0100
4100
5400
ENDCHAR
STARTCHAR z
ENCODING 122
SWIDTH 238 0
DWIDTH 3 0
BBX 3 3 0 0
BITMAP
14
10
50
ENDCHAR
STARTCHAR braceleft
ENCODING 123
SWIDTH 291 0
DWIDTH 3 0
BBX 3 8 1 -1
BITMAP
04
10
10
50
40
40
40
40
ENDCHAR
STARTCHAR bar
ENCODING 124
SWIDTH 162 0
DWIDTH 2 0
BBX 1 1 1 -3
BITMAP
00
ENDCHAR
STARTCHAR braceright
ENCODING 125
SWIDTH 285 0
DWIDTH 3 0
BBX 3 8 1 -1
BITMAP
10
14
10
10
10
40
40
40
ENDCHAR
STARTCHAR asciitilde
ENCODING 126
SWIDTH 383 0
DWIDTH 4 0
BBX 3 2 1 1
BITMAP
90
24
ENDCHAR
STARTCHAR space.dup1
ENCODING 160
SWIDTH 150 0
DWIDTH 2 0
BBX 1 1 0 0
BITMAP
00
ENDCHAR
STARTCHAR exclamdown
ENCODING 161
SWIDTH 189 0
DWIDTH 2 0
BBX 3 7 -1 -4
BITMAP
04
00
00
10
10
40
40
ENDCHAR
STARTCHAR cent
ENCODING 162
SWIDTH 194 0
DWIDTH 2 0
BBX 2 5 0 -1
BITMAP
10
20
50
90
40
ENDCHAR
STARTCHAR sterling
ENCODING 163
SWIDTH 344 0
DWIDTH 4 0
BBX 4 3 0 0
BITMAP
05
10
54
ENDCHAR
STARTCHAR currency
ENCODING 164
SWIDTH 344 0
DWIDTH 4 0
BBX 3 3 1 0
BITMAP
54
00
40
ENDCHAR
STARTCHAR yen
ENCODING 165
SWIDTH 309 0
DWIDTH 3 0
BBX 3 3 0 0
BITMAP
50
10
B4
ENDCHAR
STARTCHAR brokenbar
ENCODING 166
SWIDTH 162 0
DWIDTH 2 0
BBX 1 1 1 -3
BITMAP
00
ENDCHAR
STARTCHAR section
ENCODING 167
SWIDTH 395 0
DWIDTH 4 0
BBX 6 9 -1 -3
BITMAP
0050
0110
0500
0500
0540
0140
0140
4100
1400
ENDCHAR
STARTCHAR dieresis
ENCODING 168
SWIDTH 174 0
DWIDTH 2 0
BBX 2 1 0 3
BITMAP
50
ENDCHAR
STARTCHAR copyright
ENCODING 169
SWIDTH 331 0
DWIDTH 4 0
BBX 4 3 0 1
BITMAP
01
50
14
ENDCHAR
STARTCHAR ordfeminine
ENCODING 170
SWIDTH 226 0
DWIDTH 2 0
BBX 1 1 1 2
BITMAP
40
ENDCHAR
STARTCHAR guillemotleft
ENCODING 171
SWIDTH 289 0
DWIDTH 3 0
BBX 3 3 0 0
BITMAP
14
60
28
ENDCHAR
STARTCHAR logicalnot
ENCODING 172
SWIDTH 265 0
DWIDTH 3 0
BBX 3 2 0 1
BITMAP
B8
04
ENDCHAR
STARTCHAR registered
ENCODING 174
SWIDTH 331 0
DWIDTH 4 0
BBX 4 3 0 1
BITMAP
14
55
24
ENDCHAR
STARTCHAR degree
ENCODING 176
SWIDTH 104 0
DWIDTH 1 0
BBX 1 2 1 3
BITMAP
80
40
ENDCHAR
STARTCHAR plusminus
ENCODING 177
SWIDTH 301 0
DWIDTH 3 0
BBX 3 2 0 0
BITMAP
7C
50
ENDCHAR
STARTCHAR twosuperior
ENCODING 178
SWIDTH 215 0
DWIDTH 2 0
BBX 1 1 1 2
BITMAP
40
ENDCHAR
STARTCHAR threesuperior
ENCODING 179
SWIDTH 190 0
DWIDTH 2 0
BBX 1 1 1 2
BITMAP
40
ENDCHAR
STARTCHAR acute
ENCODING 180
SWIDTH 157 0
DWIDTH 2 0
BBX 2 2 0 3
BITMAP
10
40
ENDCHAR
STARTCHAR mu
ENCODING 181
SWIDTH 324 0
DWIDTH 4 0
BBX 4 4 0 -1
BITMAP
15
58
64
40
ENDCHAR
STARTCHAR paragraph
ENCODING 182
SWIDTH 392 0
DWIDTH 4 0
BBX 6 6 -1 -3
BITMAP
0250
0A80
0D40
0500
0200
5400
ENDCHAR
STARTCHAR periodcentered
ENCODING 183
SWIDTH 112 0
DWIDTH 1 0
BBX 1 1 0 1
BITMAP
40
ENDCHAR
STARTCHAR cedilla
ENCODING 184
SWIDTH 115 0
DWIDTH 1 0
BBX 1 1 0 -1
BITMAP
40
ENDCHAR
STARTCHAR onesuperior
ENCODING 185
SWIDTH 174 0
DWIDTH 2 0
BBX 2 2 0 2
BITMAP
50
10
ENDCHAR
STARTCHAR ordmasculine
ENCODING 186
SWIDTH 178 0
DWIDTH 2 0
BBX 1 1 1 2
BITMAP
40
ENDCHAR
STARTCHAR guillemotright
ENCODING 187
SWIDTH 276 0
DWIDTH 3 0
BBX 3 3 0 0
BITMAP
54
14
50
ENDCHAR
STARTCHAR onequarter
ENCODING 188
SWIDTH 435 0
DWIDTH 5 0
BBX 4 3 1 0
BITMAP
40
55
48
ENDCHAR
STARTCHAR onehalf
ENCODING 189
SWIDTH 434 0
DWIDTH 5 0
BBX 4 3 1 0
BITMAP
44
51
44
ENDCHAR
STARTCHAR threequarters
ENCODING 190
SWIDTH 476 0
DWIDTH 5 0
BBX 4 4 1 0
BITMAP
01
44
51
44
ENDCHAR
STARTCHAR questiondown
ENCODING 191
SWIDTH 285 0
DWIDTH 3 0
BBX 4 6 -1 -3
BITMAP
01
00
01
10
40
54
ENDCHAR
STARTCHAR Agrave
ENCODING 192
SWIDTH 996 0
DWIDTH 11 0
BBX 11 9 0 0
BITMAP
000004
000000
000554
000014
000050
001510
000BE0
000410
554024
ENDCHAR
STARTCHAR Aacute
ENCODING 193
SWIDTH 996 0
DWIDTH 11 0
BBX 11 7 0 0
BITMAP
000554
000014
000050
001510
000BE0
000410
554024
ENDCHAR
STARTCHAR Acircumflex
ENCODING 194
SWIDTH 996 0
DWIDTH 11 0
BBX 12 9 0 0
BITMAP
000009
000000
000554
000014
000050
001510
000BE0
000410
554024
ENDCHAR
STARTCHAR Atilde
ENCODING 195
SWIDTH 996 0
DWIDTH 11 0
BBX 11 8 0 0
BITMAP
000008
000554
000014
000050
001510
000BE0
000410
554024
ENDCHAR
STARTCHAR Adieresis
ENCODING 196
SWIDTH 996 0
DWIDTH 11 0
BBX 11 9 0 0
BITMAP
000004
000000
000554
000014
000050
001510
000BE0
000410
554024
ENDCHAR
STARTCHAR Aring
ENCODING 197
SWIDTH 996 0
DWIDTH 11 0
BBX 11 9 0 0
BITMAP
000004
000004
000554
000014
000050
001510
000BE0
000410
554024
ENDCHAR
STARTCHAR AE
ENCODING 198
SWIDTH 1271 0
DWIDTH 14 0
BBX 15 7 0 0
BITMAP
00055514
00001500
00005540
00191400
000BE000
00041010
55401550
ENDCHAR
STARTCHAR Ccedilla
ENCODING 199
SWIDTH 557 0
DWIDTH 6 0
BBX 7 7 0 0
BITMAP
0054
0000
1000
1000
6000
2450
0A00
ENDCHAR
STARTCHAR Egrave
ENCODING 200
SWIDTH 463 0
DWIDTH 5 0
BBX 6 9 0 0
BITMAP
0040
0000
0050
0800
0A00
1000
4000
8000
5540
ENDCHAR
STARTCHAR Eacute
ENCODING 201
SWIDTH 463 0
DWIDTH 5 0
BBX 6 9 0 0
BITMAP
0040
0000
0050
0800
0A00
1000
4000
8000
5540
ENDCHAR
STARTCHAR Ecircumflex
ENCODING 202
SWIDTH 463 0
DWIDTH 5 0
BBX 6 9 0 0
BITMAP
0180
0000
0050
0800
0A00
1000
4000
8000
5540
ENDCHAR
STARTCHAR Edieresis
ENCODING 203
SWIDTH 463 0
DWIDTH 5 0
BBX 6 9 0 0
BITMAP
0040
0000
0050
0800
0A00
1000
4000
8000
5540
ENDCHAR
STARTCHAR Igrave
ENCODING 204
SWIDTH 514 0
DWIDTH 6 0
BBX 8 7 0 0
BITMAP
0015
0044
0110
0010
4010
8180
7D00
ENDCHAR
STARTCHAR Iacute
ENCODING 205
SWIDTH 514 0
DWIDTH 6 0
BBX 8 9 0 0
BITMAP
0004
0000
0015
0044
0110
0010
4010
8180
7D00
ENDCHAR
STARTCHAR Icircumflex
ENCODING 206
SWIDTH 514 0
DWIDTH 6 0
BBX 8 9 0 0
BITMAP
0008
0000
0015
0044
0110
0010
4010
8180
7D00
ENDCHAR
STARTCHAR Idieresis
ENCODING 207
SWIDTH 514 0
DWIDTH 6 0
BBX 8 9 0 0
BITMAP
0004
0000
0015
0044
0110
0010
4010
8180
7D00
ENDCHAR
STARTCHAR Eth
ENCODING 208
SWIDTH 800 0
DWIDTH 9 0
BBX 9 7 0 0
BITMAP
015000
001000
004040
03F440
004040
010040
550000
ENDCHAR
STARTCHAR Ntilde
ENCODING 209
SWIDTH 796 0
DWIDTH 9 0
BBX 14 8 -2 0
BITMAP
00002400
00540050
00050100
00044000
00044400
40101000
40001000
25401000
ENDCHAR
STARTCHAR Ograve
ENCODING 210
SWIDTH 608 0
DWIDTH 7 0
BBX 7 9 0 0
BITMAP
0040
0000
02F4
0918
1004
1004
5004
2460
1F80
ENDCHAR
STARTCHAR Oacute
ENCODING 211
SWIDTH 608 0
DWIDTH 7 0
BBX 7 9 0 0
BITMAP
0050
0000
02F4
0918
1004
1004
5004
2460
1F80
ENDCHAR
STARTCHAR Ocircumflex
ENCODING 212
SWIDTH 608 0
DWIDTH 7 0
BBX 7 9 0 0
BITMAP
0050
0000
02F4
0918
1004
1004
5004
2460
1F80
ENDCHAR
STARTCHAR Otilde
ENCODING 213
SWIDTH 608 0
DWIDTH 7 0
BBX 7 8 0 0
BITMAP
0040
02F4
0918
1004
1004
5004
2460
1F80
ENDCHAR
STARTCHAR Odieresis
ENCODING 214
SWIDTH 608 0
DWIDTH 7 0
BBX 7 9 0 0
BITMAP
0040
0000
02F4
0918
1004
1004
5004
2460
1F80
ENDCHAR
STARTCHAR multiply
ENCODING 215
SWIDTH 301 0
DWIDTH 3 0
BBX 2 3 1 0
BITMAP
50
40
50
ENDCHAR
STARTCHAR Oslash
ENCODING 216
SWIDTH 605 0
DWIDTH 7 0
BBX 7 7 0 0
BITMAP
02E4
0954
2084
1204
5508
1460
1F80
ENDCHAR
STARTCHAR Ugrave
ENCODING 217
SWIDTH 717 0
DWIDTH 8 0
BBX 7 8 2 0
BITMAP
0040
5404
0010
0020
4050
4180
8540
B450
ENDCHAR
STARTCHAR Uacute
ENCODING 218
SWIDTH 717 0
DWIDTH 8 0
BBX 7 8 2 0
BITMAP
0050
5404
0010
0020
4050
4180
8540
B450
ENDCHAR
STARTCHAR Ucircumflex
ENCODING 219
SWIDTH 718 0
DWIDTH 8 0
BBX 7 8 2 0
BITMAP
0050
5404
0010
0020
4050
4180
8540
B450
ENDCHAR
STARTCHAR Udieresis
ENCODING 220
SWIDTH 718 0
DWIDTH 8 0
BBX 7 9 2 0
BITMAP
0040
0000
5404
0010
0020
4050
4180
8540
B450
ENDCHAR
STARTCHAR Yacute
ENCODING 221
SWIDTH 662 0
DWIDTH 7 0
BBX 10 9 0 -1
BITMAP
000100
008010
004040
004140
104200
405800
40E000
904000
2E4000
ENDCHAR
STARTCHAR Thorn
ENCODING 222
SWIDTH 745 0
DWIDTH 8 0
BBX 9 8 0 0
BITMAP
000100
000400
001E00
000980
001440
002000
404400
150000
ENDCHAR
STARTCHAR germandbls
ENCODING 223
SWIDTH 304 0
DWIDTH 3 0
BBX 10 12 -4 -3
BITMAP
000040
000250
000420
0001D0
000600
001800
000000
004400
001800
000000
000000
500000
ENDCHAR
STARTCHAR agrave
ENCODING 224
SWIDTH 294 0
DWIDTH 3 0
BBX 3 5 0 0
BITMAP
04
04
2C
54
44
ENDCHAR
STARTCHAR aacute
ENCODING 225
SWIDTH 294 0
DWIDTH 3 0
BBX 3 5 0 0
BITMAP
04
04
2C
54
44
ENDCHAR
STARTCHAR acircumflex
ENCODING 226
SWIDTH 294 0
DWIDTH 3 0
BBX 3 5 0 0
BITMAP
04
04
2C
54
44
ENDCHAR
STARTCHAR atilde
ENCODING 227
SWIDTH 294 0
DWIDTH 3 0
BBX 3 5 0 0
BITMAP
14
18
2C
54
44
ENDCHAR
STARTCHAR adieresis
ENCODING 228
SWIDTH 284 0
DWIDTH 3 0
BBX 3 4 0 0
BITMAP
04
2C
54
44
ENDCHAR
STARTCHAR aring
ENCODING 229
SWIDTH 294 0
DWIDTH 3 0
BBX 3 5 0 0
BITMAP
08
04
2C
54
44
ENDCHAR
STARTCHAR ae
ENCODING 230
SWIDTH 363 0
DWIDTH 4 0
BBX 4 3 0 0
BITMAP
1A
44
58
ENDCHAR
STARTCHAR ccedilla
ENCODING 231
SWIDTH 203 0
DWIDTH 2 0
BBX 2 4 0 -1
BITMAP
10
40
50
40
ENDCHAR
STARTCHAR egrave
ENCODING 232
SWIDTH 206 0
DWIDTH 2 0
BBX 3 5 0 0
BITMAP
20
04
20
40
50
ENDCHAR
STARTCHAR eacute
ENCODING 233
SWIDTH 206 0
DWIDTH 2 0
BBX 3 5 0 0
BITMAP
04
10
20
40
50
ENDCHAR
STARTCHAR ecircumflex
ENCODING 234
SWIDTH 206 0
DWIDTH 2 0
BBX 2 3 0 0
BITMAP
20
40
50
ENDCHAR
STARTCHAR edieresis
ENCODING 235
SWIDTH 206 0
DWIDTH 2 0
BBX 3 4 0 0
BITMAP
14
20
40
50
ENDCHAR
STARTCHAR igrave
ENCODING 236
SWIDTH 149 0
DWIDTH 2 0
BBX 2 5 0 0
BITMAP
20
10
10
40
40
ENDCHAR
STARTCHAR iacute
ENCODING 237
SWIDTH 149 0
DWIDTH 2 0
BBX 3 5 0 0
BITMAP
14
10
10
40
40
ENDCHAR
STARTCHAR icircumflex
ENCODING 238
SWIDTH 149 0
DWIDTH 2 0
BBX 2 5 0 0
BITMAP
10
00
10
40
40
ENDCHAR
STARTCHAR idieresis
ENCODING 239
SWIDTH 149 0
DWIDTH 2 0
BBX 3 4 0 0
BITMAP
14
10
40
40
ENDCHAR
STARTCHAR eth
ENCODING 240
SWIDTH 234 0
DWIDTH 3 0
BBX 3 7 0 0
BITMAP
40
10
10
04
14
44
50
ENDCHAR
STARTCHAR ntilde
ENCODING 241
SWIDTH 291 0
DWIDTH 3 0
BBX 3 5 0 0
BITMAP
14
18
58
54
44
ENDCHAR
STARTCHAR ograve
ENCODING 242
SWIDTH 225 0
DWIDTH 2 0
BBX 3 5 0 0
BITMAP
14
04
34
44
40
ENDCHAR
STARTCHAR oacute
ENCODING 243
SWIDTH 225 0
DWIDTH 2 0
BBX 3 5 0 0
BITMAP
08
00
34
44
40
ENDCHAR
STARTCHAR ocircumflex
ENCODING 244
SWIDTH 225 0
DWIDTH 2 0
BBX 3 4 0 0
BITMAP
04
34
44
40
ENDCHAR
STARTCHAR otilde
ENCODING 245
SWIDTH 225 0
DWIDTH 2 0
BBX 3 5 0 0
BITMAP
24
18
34
44
40
ENDCHAR
STARTCHAR odieresis
ENCODING 246
SWIDTH 225 0
DWIDTH 2 0
BBX 3 4 0 0
BITMAP
14
34
44
40
ENDCHAR
STARTCHAR divide
ENCODING 247
SWIDTH 301 0
DWIDTH 3 0
BBX 2 1 1 1
BITMAP
50
ENDCHAR
STARTCHAR oslash
ENCODING 248
SWIDTH 225 0
DWIDTH 2 0
BBX 3 3 0 0
BITMAP
24
54
90
ENDCHAR
STARTCHAR ugrave
ENCODING 249
SWIDTH 299 0
DWIDTH 3 0
BBX 3 5 0 0
BITMAP
08
04
14
44
54
ENDCHAR
STARTCHAR uacute
ENCODING 250
SWIDTH 299 0
DWIDTH 3 0
BBX 3 5 0 0
BITMAP
04
04
14
44
54
ENDCHAR
STARTCHAR ucircumflex
ENCODING 251
SWIDTH 299 0
DWIDTH 3 0
BBX 3 5 0 0
BITMAP
04
04
14
44
54
ENDCHAR
STARTCHAR udieresis
ENCODING 252
SWIDTH 299 0
DWIDTH 3 0
BBX 3 4 0 0
BITMAP
04
14
44
54
ENDCHAR
STARTCHAR yacute
ENCODING 253
SWIDTH 280 0
DWIDTH 3 0
BBX 6 8 -2 -3
BITMAP
0050
0040
0140
0480
0540
0100
4100
5400
ENDCHAR
STARTCHAR thorn
ENCODING 254
SWIDTH 261 0
DWIDTH 3 0
BBX 4 9 -1 -3
BITMAP
01
00
04
01
02
28
10
40
40
ENDCHAR
STARTCHAR ydieresis
ENCODING 255
SWIDTH 280 0
DWIDTH 3 0
BBX 5 7 -2 -3
BITMAP
0040
0140
0480
0540
0100
4100
5400
ENDCHAR
STARTCHAR dotlessi
ENCODING 305
SWIDTH 149 0
DWIDTH 2 0
BBX 2 3 0 0
BITMAP
10
40
40
ENDCHAR
STARTCHAR Lslash
ENCODING 321
SWIDTH 657 0
DWIDTH 7 0
BBX 8 7 0 0
BITMAP
001A
0021
0090
00D0
1540
5A04
75F4
ENDCHAR
STARTCHAR lslash
ENCODING 322
SWIDTH 134 0
DWIDTH 1 0
BBX 5 8 0 0
BITMAP
0140
0100
0400
1400
1000
1000
4000
4000
ENDCHAR
STARTCHAR OE
ENCODING 338
SWIDTH 827 0
DWIDTH 9 0
BBX 10 7 0 0
BITMAP
02F450
091800
100A00
101000
508000
244000
1F9540
ENDCHAR
STARTCHAR oe
ENCODING 339
SWIDTH 345 0
DWIDTH 4 0
BBX 4 3 0 0
BITMAP
29
44
58
ENDCHAR
STARTCHAR Scaron
ENCODING 352
SWIDTH 480 0
DWIDTH 5 0
BBX 6 9 0 0
BITMAP
0040
0040
0010
0200
0240
0080
0040
4040
1500
ENDCHAR
STARTCHAR scaron
ENCODING 353
SWIDTH 188 0
DWIDTH 2 0
BBX 3 5 0 0
BITMAP
04
10
10
10
50
ENDCHAR
STARTCHAR Ydieresis
ENCODING 376
SWIDTH 662 0
DWIDTH 7 0
BBX 10 10 0 -1
BITMAP
000400
000000
008010
004040
004140
104200
405800
40E000
904000
2E4000
ENDCHAR
STARTCHAR Zcaron
ENCODING 381
SWIDTH 625 0
DWIDTH 7 0
BBX 7 9 1 0
BITMAP
0040
0000
07F4
0410
0040
0000
0000
0040
FF40
ENDCHAR
STARTCHAR zcaron
ENCODING 382
SWIDTH 248 0
DWIDTH 3 0
BBX 3 5 0 0
BITMAP
04
04
14
10
50
ENDCHAR
STARTCHAR florin
ENCODING 402
SWIDTH 214 0
DWIDTH 2 0
BBX 4 4 -1 -1
BITMAP
0A
2D
10
50
ENDCHAR
STARTCHAR circumflex
ENCODING 710
SWIDTH 196 0
DWIDTH 2 0
BBX 1 1 1 3
BITMAP
40
ENDCHAR
STARTCHAR caron
ENCODING 711
SWIDTH 196 0
DWIDTH 2 0
BBX 1 2 1 3
BITMAP
40
40
ENDCHAR
STARTCHAR breve
ENCODING 728
SWIDTH 198 0
DWIDTH 2 0
BBX 2 2 0 3
BITMAP
10
60
ENDCHAR
STARTCHAR dotaccent
ENCODING 729
SWIDTH 89 0
DWIDTH 1 0
BBX 1 1 0 3
BITMAP
40
ENDCHAR
STARTCHAR ring
ENCODING 730
SWIDTH 117 0
DWIDTH 1 0
BBX 1 2 0 3
BITMAP
80
40
ENDCHAR
STARTCHAR ogonek
ENCODING 731
SWIDTH 124 0
DWIDTH 1 0
BBX 1 1 0 -1
BITMAP
40
ENDCHAR
STARTCHAR tilde
ENCODING 732
SWIDTH 222 0
DWIDTH 2 0
BBX 2 2 0 3
BITMAP
50
60
ENDCHAR
STARTCHAR hungarumlaut
ENCODING 733
SWIDTH 253 0
DWIDTH 3 0
BBX 3 2 0 3
BITMAP
64
50
ENDCHAR
STARTCHAR mu.dup2
ENCODING 956
SWIDTH 324 0
DWIDTH 4 0
BBX 4 4 0 -1
BITMAP
15
58
64
40
ENDCHAR
STARTCHAR endash
ENCODING 8211
SWIDTH 500 0
DWIDTH 6 0
BBX 6 1 0 1
BITMAP
BFD0
ENDCHAR
STARTCHAR emdash
ENCODING 8212
SWIDTH 1000 0
DWIDTH 11 0
BBX 11 1 0 1
BITMAP
BFFFF8
ENDCHAR
STARTCHAR quoteleft
ENCODING 8216
SWIDTH 87 0
DWIDTH 1 0
BBX 1 1 0 3
BITMAP
40
ENDCHAR
STARTCHAR quoteright
ENCODING 8217
SWIDTH 87 0
DWIDTH 1 0
BBX 1 2 1 3
BITMAP
40
40
ENDCHAR
STARTCHAR quotesinglbase
ENCODING 8218
SWIDTH 112 0
DWIDTH 1 0
BBX 1 1 0 0
BITMAP
00
ENDCHAR
STARTCHAR quotedblleft
ENCODING 8220
SWIDTH 167 0
DWIDTH 2 0
BBX 2 2 0 3
BITMAP
10
50
ENDCHAR
STARTCHAR quotedblright
ENCODING 8221
SWIDTH 167 0
DWIDTH 2 0
BBX 2 2 1 3
BITMAP
50
40
ENDCHAR
STARTCHAR quotedblbase
ENCODING 8222
SWIDTH 192 0
DWIDTH 2 0
BBX 2 1 0 0
BITMAP
50
ENDCHAR
STARTCHAR dagger
ENCODING 8224
SWIDTH 185 0
DWIDTH 2 0
BBX 3 6 0 0
BITMAP
10
10
B4
10
00
40
ENDCHAR
STARTCHAR daggerdbl
ENCODING 8225
SWIDTH 185 0
DWIDTH 2 0
BBX 4 6 -1 0
BITMAP
04
04
1E
00
78
10
ENDCHAR
STARTCHAR bullet
ENCODING 8226
SWIDTH 207 0
DWIDTH 2 0
BBX 2 1 0 1
BITMAP
60
ENDCHAR
STARTCHAR ellipsis
ENCODING 8230
SWIDTH 376 0
DWIDTH 4 0
BBX 1 1 3 0
BITMAP
00
ENDCHAR
STARTCHAR perthousand
ENCODING 8240
SWIDTH 571 0
DWIDTH 6 0
BBX 6 5 0 -1
BITMAP
0100
1400
A550
1550
4000
ENDCHAR
STARTCHAR guilsinglleft
ENCODING 8249
SWIDTH 189 0
DWIDTH 2 0
BBX 2 3 0 0
BITMAP
10
40
10
ENDCHAR
STARTCHAR guilsinglright
ENCODING 8250
SWIDTH 176 0
DWIDTH 2 0
BBX 2 3 0 0
BITMAP
40
10
40
ENDCHAR
STARTCHAR fraction
ENCODING 8260
SWIDTH 220 0
DWIDTH 2 0
BBX 3 3 0 0
BITMAP
04
10
40
ENDCHAR
STARTCHAR Euro
ENCODING 8364
SWIDTH 360 0
DWIDTH 4 0
BBX 3 4 0 0
BITMAP
2C
B4
40
40
ENDCHAR
STARTCHAR trademark
ENCODING 8482
SWIDTH 389 0
DWIDTH 4 0
BBX 3 2 1 1
BITMAP
54
10
ENDCHAR
STARTCHAR minus
ENCODING 8722
SWIDTH 301 0
DWIDTH 3 0
BBX 3 1 0 1
BITMAP
7C
ENDCHAR
STARTCHAR fi
ENCODING 64257
SWIDTH 297 0
DWIDTH 3 0
BBX 9 11 -3 -3
BITMAP
000140
000000
001400
004400
004000
01F000
004000
011000
010000
040000
400000
ENDCHAR
STARTCHAR fl
ENCODING 64258
SWIDTH 290 0
DWIDTH 3 0
BBX 10 11 -3 -3
BITMAP
000050
000100
001400
004400
005400
01F000
005000
012000
010000
040000
400000
ENDCHAR
STARTCHAR .notdef
ENCODING -1
SWIDTH 150 0
DWIDTH 2 0
BBX 1 1 0 0
BITMAP
00
ENDCHAR
STARTCHAR .null
ENCODING -1
SWIDTH 0 0
DWIDTH 0 0
BBX 1 1 0 0
BITMAP
00
ENDCHAR
STARTCHAR nonmarkingreturn
ENCODING -1
SWIDTH 150 0
DWIDTH 2 0
BBX 1 1 0 0
BITMAP
00
ENDCHAR
ENDFONT
